<?xml version="1.0" encoding="UTF-8" standalone="no"?>
<!-- Created with Inkscape (http://www.inkscape.org/) -->

<svg
   xmlns:dc="http://purl.org/dc/elements/1.1/"
   xmlns:cc="http://creativecommons.org/ns#"
   xmlns:rdf="http://www.w3.org/1999/02/22-rdf-syntax-ns#"
   xmlns:svg="http://www.w3.org/2000/svg"
   xmlns="http://www.w3.org/2000/svg"
   xmlns:sodipodi="http://sodipodi.sourceforge.net/DTD/sodipodi-0.dtd"
   xmlns:inkscape="http://www.inkscape.org/namespaces/inkscape"
   width="88.26973mm"
   height="93.269508mm"
   viewBox="0 0 312.76678 330.48251"
   id="svg4197"
   version="1.1"
   inkscape:version="0.91 r13725"
   sodipodi:docname="tile.svg">
  <defs
     id="defs4199" />
  <sodipodi:namedview
     id="base"
     pagecolor="#ffffff"
     bordercolor="#666666"
     borderopacity="1.0"
     inkscape:pageopacity="0.0"
     inkscape:pageshadow="2"
     inkscape:zoom="0.7"
     inkscape:cx="262.55416"
     inkscape:cy="26.280515"
     inkscape:document-units="px"
     inkscape:current-layer="layer1"
     showgrid="false"
     showguides="true"
     inkscape:guide-bbox="true"
     inkscape:object-paths="true"
     inkscape:snap-page="true"
     fit-margin-top="0"
     fit-margin-left="0"
     fit-margin-right="0"
     fit-margin-bottom="0"
     inkscape:window-width="1440"
     inkscape:window-height="819"
     inkscape:window-x="0"
     inkscape:window-y="1"
     inkscape:window-maximized="1">
    <sodipodi:guide
       position="300.41132,-193.71949"
       orientation="0,1"
       id="guide4745" />
  </sodipodi:namedview>
  <metadata
     id="metadata4202">
    <rdf:RDF>
      <cc:Work
         rdf:about="">
        <dc:format>image/svg+xml</dc:format>
        <dc:type
           rdf:resource="http://purl.org/dc/dcmitype/StillImage" />
        <dc:title></dc:title>
      </cc:Work>
    </rdf:RDF>
  </metadata>
  <g
     inkscape:label="Layer 1"
     inkscape:groupmode="layer"
     id="layer1"
     transform="translate(0.41130058,0.41126733)">
    <path
       style="fill:#000000;fill-rule:evenodd;stroke:#000000;stroke-width:1px;stroke-linecap:butt;stroke-linejoin:miter;stroke-opacity:1"
       d="m 0.08869942,0.08871741 0,220.55443259 41.88735758,-22.13625 1.795619,20.93966 49.069834,-49.05891 -2.992183,63.4165 52.060453,-53.84372 5.3853,39.48613 36.50205,-35.29883 -15.55838,-37.09136 30.51927,-20.34215 -13.16527,144.78195 45.4786,-52.04961 -9.57403,-25.72605 46.67515,-69.39948 -19.14962,134.01257 34.10895,-25.12697 4.18874,-40.08364 24.45534,52.64713 0.0796,-26.32356 -0.0796,-219.35784259 -311.68718058,0 z M 31.639162,249.86382 l 0,38.45023 12.552168,0 -12.552168,-38.45023 z m 203.109228,11.41058 -11.41021,39.93855 25.10277,-6.84728 -13.69256,-33.09127 z m -119.81188,11.41056 -11.41022,28.52799 25.10277,28.52799 -13.69255,-57.05598 z"
       id="path4747"
       inkscape:connector-curvature="0" />
  </g>
</svg>
